<mxfile host="app.diagrams.net" modified="2024-06-25T14:03:33.133Z" agent="Mozilla/5.0 (Windows NT 10.0; Win64; x64) AppleWebKit/537.36 (KHTML, like Gecko) Chrome/126.0.0.0 Safari/537.36" version="24.6.2" etag="T7Y31iKaWVre6P6a8oZ2" type="github">
  <diagram name="第 1 页" id="a7Jcxn8FcJfvwRqeDb1o">
    <mxGraphModel>
      <root>
        <mxCell id="0" />
        <mxCell id="1" parent="0" />
      </root>
    </mxGraphModel>
  </diagram>
</mxfile>
